<?xml version="1.0" encoding="utf-8"?><svg xmlns="http://www.w3.org/2000/svg" xmlns:xlink="http://www.w3.org/1999/xlink"><symbol viewBox="0 0 24 24" id="icon-close" xmlns="http://www.w3.org/2000/svg"><path d="M12 0C5.4 0 0 5.4 0 12s5.4 12 12 12 12-5.4 12-12S18.6 0 12 0zm0 22C6.5 22 2 17.5 2 12S6.5 2 12 2s10 4.5 10 10-4.5 10-10 10zm4.7-14.7c-.4-.4-1-.4-1.4 0L12 10.6 8.7 7.3c-.4-.4-1-.4-1.4 0-.4.4-.4 1 0 1.4l3.3 3.3-3.3 3.3c-.4.4-.4 1 0 1.4.4.4 1 .4 1.4 0l3.3-3.3 3.3 3.3c.4.4 1 .4 1.4 0 .4-.4.4-1 0-1.4L13.4 12l3.3-3.3c.4-.4.4-1 0-1.4z" fill-rule="evenodd" clip-rule="evenodd"/></symbol><symbol viewBox="0 0 125.4 38.1" id="icon-logo" xmlns="http://www.w3.org/2000/svg"><path d="M19.5 24.6h-9c-.2 0-.4-.2-.4-.4 0-.1 0-.2.1-.2 0 0 8.9-9.3 9.7-10.3 1.2-1.4 1-3.4-.4-4.6-.6-.5-1.3-.8-2.1-.8H1.7c-.1 0-.2 0-.3.1v.3c.1 1.5.6 2.9 1.3 4.2.2.2.4.4.7.4H12c.2 0 .3.1.4.2.1.1.1.3 0 .4 0 0-8.9 9.3-9.7 10.2-1.2 1.4-1 3.5.4 4.6.6.5 1.3.8 2.1.8h15.9c.1 0 .2-.1.3-.1.1-.1.1-.2.1-.3-.1-1.5-.6-2.9-1.3-4.1-.2-.2-.5-.4-.7-.4zm58.6-9.7c-.3 0-.5.1-.7.3l-.4.4c-.1.1-.1.1 0 .2 1.7 1.8 1.7 4.6 0 6.4-.1.1-.1.2 0 .2l.4.4c.2.2.4.3.7.3.3 0 .5-.2.7-.4.8-1.1 1.2-2.4 1.2-3.7 0-1.3-.4-2.6-1.2-3.6-.2-.4-.4-.5-.7-.5zm8.2.9c-.1-.3-.4-.5-.8-.5h-.9c-.1 0-.1 0-.1.1l-3.3 7.3v.1h1.4l2.6-5.9 1.4 3.2h-.9c-.4 0-.7.2-.8.5l-.3.6v.1h2.6l.4.9c.2.3.5.5.8.5h.9v-.1l-3-6.8z"/><path d="M33.8 32.4c-3.7-2.5-6.2-6.4-6.9-10.7h2.5c.2 0 .4-.1.4-.3.3-1.6.3-3.2 0-4.8 0-.2-.2-.3-.4-.3h-2.5c.7-4.4 3.2-8.3 6.9-10.7.2-.2.3-.4.2-.6-.5-1.5-1.3-2.8-2.4-3.9-.2-.1-.4-.1-.6 0-9.9 6.6-12.5 19.9-5.9 29.8 1.6 2.3 3.6 4.3 5.9 5.9.2.1.4.1.6 0 1.1-1 2-2.4 2.4-3.8.1-.3 0-.5-.2-.6zm30.9-16.6c-.1-.3-.4-.5-.8-.5H63c-.1 0-.1 0-.1.1l-3.3 7.2v.1h1.5l2.6-5.9 1.4 3.2h-.9c-.4 0-.7.2-.8.5l-.3.6v.1h2.5l.4.9c.1.3.5.5.8.5h.9v-.1l-3-6.7zm11.8-3l-.4-.4c-.2-.2-.4-.3-.6-.3-.3 0-.5.1-.7.3-3.1 3.8-3.1 9.2 0 13 .2.2.4.3.7.3.2 0 .5-.1.6-.3l.4-.4c.1-.1.1-.1 0-.2-3.2-3.3-3.2-8.6 0-11.9.1 0 .1-.1 0-.1z"/><path d="M73 13c.1-.1.1-.2 0-.2l-.4-.4c-.2-.2-.4-.3-.6-.2-.2 0-.5.1-.6.3-3.1 3.8-3.1 9.2 0 13 .2.2.4.3.6.3.2 0 .5-.1.6-.3l.4-.4c.1-.1.1-.1 0-.2-3.1-3.4-3.1-8.6 0-11.9zm24.3 2h-1.2c-.1 0-.1.1-.1.2v4.9l-3.6-4.7c-.1-.2-.4-.4-.7-.4h-.6c-.1 0-.1.1-.1.1v7.4c0 .1.1.1.1.2h1.2c.1 0 .1-.1.1-.2v-4.8l3.6 4.7c.2.2.4.4.7.4h.6c.1 0 .1-.1.1-.1v-7.6s0-.1-.1-.1zm15.4 0h-5.5c-.1 0-.1 0-.2.1v7.5c0 .1.1.1.1.1h5.5c.1 0 .1-.1.1-.1v-1.1c0-.1 0-.1-.1-.2h-4.2v-1.8h3.5c.1 0 .1-.1.2-.1v-1c0-.1-.1-.1-.2-.2h-3.5v-1.8h4.2c.1 0 .1-.1.1-.1v-1.1c.2-.1.1-.2 0-.2zm-10 1.4c.5 0 1.1.2 1.5.5.3.2.8.2 1.1 0l.4-.3v-.2c-1.4-1.7-3.9-1.9-5.6-.4s-1.9 3.9-.4 5.6c1.4 1.7 3.9 1.9 5.6.4.2-.1.3-.3.4-.4v-.2l-.5-.3c-.3-.2-.8-.2-1.1 0-.4.3-1 .5-1.5.5-1.4 0-2.5-1.1-2.5-2.5s1.2-2.7 2.6-2.7zm-34.9 6.3h-.9c-.3 0-.7-.2-.8-.5l-.4-.9h-2.5v-.1l.3-.6c.1-.3.5-.5.8-.5h.9l-1.4-3.2-2.6 5.9h-1.5v-.1l3.3-7.3c0-.1.1-.1.1-.1h.9c.3 0 .7.2.8.5l3.1 6.9c-.1-.1-.1 0-.1 0z"/><path d="M73 25.1l-.4.4c-.2.2-.4.3-.6.3-.2 0-.5-.1-.6-.3-3.1-3.8-3.1-9.2 0-13 .2-.2.4-.3.6-.3.2 0 .5.1.6.2l.4.4c.1.1.1.2 0 .2-3.2 3.3-3.2 8.6 0 11.9.1 0 .1.1 0 .2z"/><path d="M76.5 24.9c.1.1.1.1 0 .2l-.4.4c-.2.2-.4.3-.6.3-.2 0-.5-.1-.6-.3-3.1-3.8-3.1-9.2 0-13 .2-.2.4-.3.6-.3.2 0 .5.1.7.3l.4.4c.1.1.1.2 0 .2-3.3 3.2-3.3 8.4-.1 11.8zm2.3-2.3c-.2.2-.4.3-.7.4-.2 0-.5-.1-.7-.3l-.4-.4c-.1-.1-.1-.2 0-.2 1.7-1.8 1.7-4.6 0-6.4-.1-.1-.1-.1 0-.2l.4-.4c.3-.3.9-.4 1.2 0l.1.1c.8 1.1 1.2 2.3 1.2 3.6.1 1.4-.3 2.7-1.1 3.8zm-57.4 6.9c-.1.1-.2.1-.3.1H5.2c-1.8 0-3.3-1.5-3.3-3.3 0-.8.3-1.5.8-2.1.8-1 9.6-10.3 9.6-10.3.1-.1.1-.3 0-.4-.1-.1-.2-.2-.4-.2H3.4c-.3 0-.5-.1-.7-.3-.8-1.3-1.2-2.7-1.4-4.2v-.3c.1-.1.2-.1.3-.1h15.8c1.8 0 3.3 1.5 3.3 3.3 0 .8-.3 1.5-.8 2.1-.8 1-9.7 10.3-9.7 10.3-.1.2-.1.4.1.6.1.1.1.1.2.1h9c.3 0 .5.1.7.4.7 1.3 1.2 2.7 1.3 4.1 0 0 0 .1-.1.2zm68-6.8h-.9c-.3 0-.7-.2-.8-.5l-.4-.9h-2.4v-.1l.3-.6c.1-.3.5-.5.8-.5h.9l-1.3-3.2-2.6 5.9h-1.4v-.1l3.3-7.3c0-.1.1-.1.1-.1h.9c.3 0 .7.2.8.5l3 6.8c-.3 0-.3.1-.3.1z"/><path d="M31.6 36.8c-.2.1-.4.1-.6 0-9.9-6.6-12.5-20-5.9-29.8 1.6-2.3 3.6-4.3 5.9-5.9.2-.1.4-.1.6 0 1.1 1.1 2 2.4 2.4 3.9 0 .2 0 .4-.2.6-3.7 2.5-6.2 6.3-6.9 10.7h2.5c.2 0 .4.1.4.3.3 1.6.3 3.2 0 4.8 0 .2-.2.3-.4.3h-2.5c.7 4.4 3.2 8.3 6.9 10.7.2.1.3.3.2.6-.4 1.4-1.3 2.7-2.4 3.8zm65.7-14.2c0 .1-.1.1-.1.1h-.6c-.3 0-.5-.1-.7-.4l-3.5-4.6v4.9c0 .1-.1.1-.1.2h-1.2c-.1 0-.1-.1-.1-.2v-7.5c0-.1.1-.1.1-.1h.6c.3 0 .5.1.7.4l3.6 4.7v-4.9c0-.1.1-.1.1-.1h1.2c.1 0 .1.1.1.1l-.1 7.4zm5.4-1.2c.5 0 1.1-.2 1.5-.5.3-.2.8-.2 1.1 0l.4.3v.2c-1.4 1.7-3.9 1.9-5.6.4s-1.9-3.9-.4-5.6c1.4-1.7 3.9-1.9 5.6-.4.2.1.3.3.4.4v.2l-.4.3c-.3.2-.8.2-1.1 0-.4-.3-1-.5-1.5-.5-1.4 0-2.5 1.1-2.5 2.5 0 1.6 1.1 2.7 2.5 2.7zm10.2-5.1c0 .1-.1.1-.1.1h-4.2v1.8h3.5c.1 0 .1.1.2.2v1c0 .1-.1.1-.2.1h-3.5v1.8h4.2c.1 0 .1.1.1.1v1.1c0 .1-.1.1-.1.1h-5.5c-.1 0-.1 0-.2-.1V15c0-.1.1-.1.1-.1h5.5c.1 0 .1.1.1.1l.1 1.3z"/><path d="M43.1 7.4c-6.4 0-11.5 5.1-11.5 11.5s5.1 11.5 11.5 11.5 11.5-5.1 11.5-11.5c0-6.3-5.2-11.5-11.5-11.5zm0 17.9c-3.5 0-6.4-2.8-6.4-6.4s2.8-6.4 6.4-6.4c3.5 0 6.4 2.8 6.4 6.4-.1 3.5-2.9 6.4-6.4 6.4zM119.3 13c-2.2 0-3.9-1.8-3.9-3.9s1.8-3.9 3.9-3.9 3.9 1.8 3.9 3.9-1.8 3.9-3.9 3.9zm0-6.8c-1.6 0-2.9 1.3-2.9 2.9s1.3 2.9 2.9 2.9 2.9-1.3 2.9-2.9-1.3-2.9-2.9-2.9z"/><path d="M121 8.4c0 .6-.3 1-.8 1.2l1 1.3h-.8l-.9-1.2h-.8v1.2h-.7V7.2h1.4c.6 0 1 .1 1.2.3.2.2.4.5.4.9zm-.9.6c.1-.1.2-.3.2-.5s-.1-.4-.2-.5c-.1-.1-.4-.1-.7-.1h-.8v1.3h.8c.4-.1.6-.1.7-.2z"/></symbol><symbol viewBox="0 0 40 40" id="icon-warning" xmlns="http://www.w3.org/2000/svg"><path d="M20 6c.7 0 1 .3 1.1.5l13.8 25.2v.5c0 .4-.4.8-.8.8H5.8c-.4 0-.8-.4-.8-.8 0-.1 0-.2.1-.3l.2-.6L18.9 6.4c.1-.1.4-.4 1.1-.4m0-2c-1.8 0-2.7 1.2-2.8 1.4l-14 25.5c-.1.1 0 .2 0 .3-.1.3-.2.7-.2 1C3 33.7 4.3 35 5.8 35h28.3c1.6 0 2.8-1.3 2.8-2.8v-.3-.1c0-.1-.1-.2-.1-.4 0-.1 0-.3-.1-.4L22.8 5.4c-.1-.2-1-1.4-2.8-1.4z"/><path fill-rule="evenodd" clip-rule="evenodd" d="M20 13c-1.1 0-2 .8-2 2v7c0 1.2.9 2 2 2s2-.8 2-2v-7c0-1.2-.9-2-2-2zm0 13c-1.1 0-2 .9-2 2s.9 2 2 2 2-.9 2-2-.9-2-2-2z"/></symbol></svg>